# xmcd
#
# Track frame offsets: 
#        165
#        10640
#        22681
#        30824
#        43627
#        58763
#        71492
#        80940
#        90270
#        101767
#        117791
#        140580
#        154850
#        164615
#        176470
#        191761
#        201365
#        211873
#
# Disc length: 3047 seconds
#
# Revision: 0
# Processed by: cddbd v1.5.2PL0 Copyright (c) Steve Scherf et al.
# Submitted via: ExactAudioCopy v0.99pb3
#
DISCID=e80be512
DTITLE=Accident Clearinghouse - By Blood And Marriage
DYEAR=1999
DGENRE=Country
TTITLE0=In Heaven There Is No Beer
TTITLE1=H-E-L-L Bound
TTITLE2=In A Whisper
TTITLE3=Lonely, Broken-Hearted Fools
TTITLE4=Wichita Trail
TTITLE5=I Wasn't Ready
TTITLE6=Do You Like The Hula?
TTITLE7=General Washington
TTITLE8=Train Song
TTITLE9=If I Said You Were A Nurse
TTITLE10=Wonderin'
TTITLE11=Cannibal Man
TTITLE12=Griddle-Cake Joey
TTITLE13=Bring Me Some Water
TTITLE14=Ain't Got No Sweet Baby
TTITLE15=In The Woods
TTITLE16=On The Nature Of Things
TTITLE17=Mr. Fever
EXTD=
EXTT0=
EXTT1=
EXTT2=
EXTT3=
EXTT4=
EXTT5=
EXTT6=
EXTT7=
EXTT8=
EXTT9=
EXTT10=
EXTT11=
EXTT12=
EXTT13=
EXTT14=
EXTT15=
EXTT16=
EXTT17=
PLAYORDER=
